<svg width="285" height="131" viewBox="0 0 285 131" fill="none" xmlns="http://www.w3.org/2000/svg">
<path fill-rule="evenodd" clip-rule="evenodd" d="M280.41 1.60289C277.013 3.05133 276.678 3.26137 276.062 4.3206C275.695 4.95209 275.463 5.53496 275.547 5.61581C275.631 5.69666 276.961 5.20474 278.504 4.52272C280.046 3.8407 281.843 3.07591 282.498 2.82326C283.381 2.48239 283.794 2.1183 284.101 1.40869C284.563 0.342635 284.618 -0.0408496 284.302 0.00339856C284.186 0.0195136 282.434 0.739503 280.41 1.60289ZM231.867 7.79053C229.915 9.37527 229.658 11.0089 231.172 12.2126L232.187 13.0197L231.526 13.6264C231.162 13.9599 229.914 14.8566 228.751 15.6189C227.588 16.3812 226.791 17.0545 226.979 17.1151C227.968 17.4333 231.572 15.588 232.872 14.0983C233.505 13.3715 233.68 13.3016 234.153 13.5865C234.834 13.9967 235.131 13.4587 234.846 12.3284C234.743 11.9179 234.633 10.8029 234.602 9.85052C234.554 8.39798 234.438 8.03526 233.877 7.59714C233.018 6.92632 232.92 6.93588 231.867 7.79053ZM77.1474 9.11743C73.4132 10.7022 73.1703 10.8527 72.7028 11.8706C72.4311 12.4631 72.3107 12.9826 72.435 13.0252C72.5596 13.0678 74.4179 12.335 76.5651 11.397C80.0612 9.86964 80.5106 9.59514 80.8687 8.76754C81.089 8.2595 81.2305 7.75311 81.1832 7.64221C81.1362 7.53159 79.3201 8.19532 77.1474 9.11743ZM279.414 7.85417C278.342 8.40372 277.154 9.87101 277.154 10.6454C277.154 10.9122 277.478 11.5025 277.875 11.957L278.596 12.7837L277.74 13.2106C276.925 13.6173 276.098 15.287 276.612 15.4894C276.729 15.5353 277.567 15.2144 278.475 14.776C279.903 14.0869 281.049 13.752 283.829 13.2117C284.421 13.0968 285.208 11.8652 284.949 11.4604C284.873 11.341 284.266 11.3449 283.601 11.4691C281.413 11.8772 280.621 11.7712 279.659 10.9417C278.619 10.045 278.699 9.37663 279.88 9.09039C280.511 8.9377 280.765 9.04477 281.296 9.6861C281.989 10.5246 282.008 10.5235 282.495 9.61972C282.94 8.79321 282.902 8.52335 282.25 7.89459C281.544 7.21366 280.687 7.20165 279.414 7.85417ZM233.336 9.74264C233.408 10.0079 233.391 10.4331 233.298 10.6877C233.144 11.1113 233.051 11.1026 232.202 10.5836C231.464 10.1329 231.341 9.93929 231.6 9.63857C232.065 9.09721 233.179 9.16386 233.336 9.74264ZM182.211 11.2826C178.624 12.8059 178.242 13.0364 177.735 13.991C177.43 14.5649 177.22 15.1303 177.269 15.2474C177.317 15.3646 179.195 14.6471 181.443 13.6529C185.101 12.0348 185.569 11.7502 185.915 10.933C186.127 10.4309 186.263 9.92973 186.217 9.81884C186.171 9.70795 184.368 10.3668 182.211 11.2826ZM263.989 12.2672C263.171 12.5721 262.244 13.6168 261.722 14.8227L261.268 15.871L262.424 16.9327L263.581 17.9941L262.653 18.7949C262.142 19.2355 260.932 20.0667 259.965 20.6419C258.104 21.7486 257.817 22.0977 258.769 22.0977C259.789 22.0977 262.452 20.7044 263.783 19.4737C264.818 18.5169 265.205 18.318 265.768 18.4541C266.441 18.6171 266.46 18.5846 266.289 17.5609C266.192 16.9764 266.073 15.7568 266.026 14.8506C265.978 13.9443 265.843 13.0539 265.727 12.872C265.372 12.3178 264.587 12.0446 263.989 12.2672ZM79.8096 13.9293C79.6304 14.2524 79.5567 14.8689 79.6459 15.2993C79.7841 15.9652 79.7037 16.1073 79.1089 16.2515C78.0843 16.4995 77.5693 16.2081 77.3751 15.2701C77.1095 13.9896 76.7559 14.0303 76.4031 15.3818C76.0518 16.7276 75.1096 17.5451 74.074 17.403C73.5666 17.3334 73.45 17.1321 73.4336 16.2968C73.4052 14.8691 73.1117 14.7383 72.5981 15.9245C72.0024 17.2998 72.292 18.7709 73.2255 19.1134C74.1691 19.4595 75.1934 19.1661 75.8491 18.362C76.3108 17.7955 76.4869 17.7395 76.99 17.9993C77.3173 18.1684 77.9806 18.2683 78.4639 18.2219C79.6847 18.1044 80.4522 17.0163 80.6099 15.1791C80.7481 13.5742 80.3506 12.9539 79.8096 13.9293ZM264.704 14.8773C264.856 15.2627 264.98 15.6315 264.98 15.6967C264.98 15.9732 264.058 15.7822 263.408 15.3714C262.857 15.0232 262.775 14.8456 263.028 14.552C263.551 13.9437 264.401 14.1087 264.704 14.8773ZM90.883 16.5981C90.3932 17.6073 90.3077 18.0523 90.5277 18.4489C90.8252 18.9856 91.2697 21.3946 92.2586 27.8336C93.6719 37.0361 93.7317 37.8588 93.0239 38.3581C92.328 38.8492 90.0591 39.1127 88.4876 38.8855C86.7405 38.6328 85.8376 37.8973 85.4498 36.412C85.2756 35.7447 85.0293 35.137 84.9022 35.0613C84.7754 34.9856 84.3878 35.6742 84.041 36.5914C83.6848 37.534 83.1336 38.4345 82.7732 38.6623C82.0111 39.1442 80.5887 38.9538 79.3 38.1977C78.4314 37.6881 78.4285 37.6793 78.8204 36.6081C79.0369 36.0156 79.1457 35.4645 79.0616 35.3833C78.9775 35.3025 78.191 35.9566 77.3136 36.8375C75.6345 38.523 74.4947 39.0278 72.3589 39.0305C71.1525 39.0324 71.1698 39.1447 72.0304 36.8804C72.2804 36.223 72.4078 35.6103 72.3133 35.5194C72.219 35.4284 71.6899 35.8791 71.1375 36.5207C69.5218 38.3971 68.2936 38.8658 64.9603 38.8781C62.7825 38.886 61.9179 38.7779 61.2138 38.4094C60.1974 37.8776 59.3198 36.4991 59.5219 35.7529C59.5941 35.4866 59.5536 35.1132 59.4319 34.9231C59.283 34.6909 58.9679 35.0395 58.4716 35.9842C57.9993 36.8829 57.3159 37.6569 56.579 38.1275C55.4833 38.827 55.2155 38.8696 51.2745 38.9729L47.1241 39.0813L47.9352 38.3338C48.9533 37.3955 49.7992 35.6273 49.8075 34.4211C49.8123 33.7158 49.5807 33.2854 48.8276 32.6001C47.5239 31.4138 46.2074 31.0301 43.8776 31.1571C42.2276 31.247 41.7316 31.4062 40.3557 32.2876C39.4749 32.8519 38.2762 33.73 37.6919 34.2394L36.6294 35.1654L36.7452 31.5837C36.8267 29.061 36.7095 26.9715 36.3491 24.5163C35.8542 21.1436 35.8545 21.0008 36.3559 20.1024C36.8677 19.1852 36.8666 19.1667 36.2486 18.5704C35.9043 18.2383 35.3627 17.3905 35.0451 16.6863L34.4672 15.4058L33.7422 16.8161C33.0265 18.2077 33.0231 18.2454 33.4749 19.684C34.5001 22.9466 35.7721 32.6722 35.4621 34.8778C35.3214 35.8777 35.0436 36.2724 33.5666 37.5693L31.836 39.0887L30.0682 38.9344C26.375 38.6115 26.23 38.3094 25.1919 28.7764C24.5512 22.8917 23.5877 16.9065 23.2236 16.5503C23.0991 16.4287 22.7163 16.9971 22.3732 17.8133C21.7781 19.2273 21.769 19.3663 22.1804 20.7656C22.4176 21.5735 22.8791 24.3852 23.2053 27.0142C24.7584 39.5279 25.0384 40.4399 27.7308 41.7619C28.634 42.2052 29.8335 42.2511 41.2939 42.2781C49.598 42.2978 54.2594 42.2063 55.025 42.0091C55.7633 41.8184 56.6059 41.2866 57.3473 40.5429L58.5109 39.3755L58.9806 40.1422C59.2456 40.5751 60.1278 41.2287 61.0077 41.6442C62.3961 42.2994 62.8029 42.3658 64.7536 42.2541C66.0304 42.1812 67.3291 41.9342 67.8709 41.6617C68.7429 41.223 68.8913 41.2224 70.306 41.6526C72.358 42.2768 74.0683 42.0088 75.6996 40.8073C76.793 40.0021 76.9971 39.9376 77.3071 40.2979C77.8077 40.8797 79.5231 41.6843 80.7271 41.9023C82.0269 42.1375 82.7389 41.7638 83.3468 40.5279L83.8295 39.5465L85.0528 40.6344C86.4234 41.8531 87.7498 42.306 89.9541 42.3082C92.8634 42.3112 94.1875 41.22 94.876 38.2526C95.2574 36.6086 94.9833 33.0401 93.9746 26.5042C93.2444 21.774 93.2144 20.6555 93.7954 19.8003C94.2543 19.1246 94.2404 19.07 93.3118 17.8963C92.7861 17.2318 92.2728 16.3689 92.1714 15.9786C91.905 14.9552 91.6123 15.0958 90.883 16.5981ZM184.871 16.0668C184.689 16.3957 184.575 16.9346 184.62 17.2645C184.73 18.0911 184.377 18.5469 183.625 18.5469C182.803 18.5469 182.311 18.0572 182.311 17.2405C182.311 16.3266 181.68 16.6175 181.4 17.6606C181.128 18.6731 179.889 19.6963 179.072 19.5832C178.609 19.5196 178.459 19.2502 178.344 18.2738L178.198 17.0447L177.707 17.9187C177.198 18.8228 177.068 20.0981 177.431 20.6228C177.815 21.1772 178.929 21.5834 179.561 21.3993C179.906 21.299 180.539 20.8997 180.968 20.5119C181.572 19.9659 181.824 19.8804 182.086 20.133C182.949 20.9655 184.714 20.3138 185.308 18.9435C186.028 17.2809 185.635 14.6905 184.871 16.0668ZM199.029 17.8299C198.427 19.262 198.417 19.3977 198.829 20.7825C199.067 21.5809 199.53 24.3852 199.858 27.0142C201.425 39.5683 201.694 40.4342 204.453 41.7925C206.289 42.6963 211.061 42.3584 213.071 41.1823C214.669 40.2471 215.346 37.2467 214.485 34.9223C213.992 33.5929 212.343 31.3319 211.956 31.4562C211.783 31.5119 211.483 32.1527 211.291 32.88C210.945 34.1867 210.952 34.216 211.898 35.3287C213.246 36.9165 213.627 37.9612 213.014 38.3936C211.862 39.2064 205.57 39.2075 204.285 38.3949C202.917 37.5307 202.709 36.6444 201.7 27.4239C201.179 22.662 200.213 16.8699 199.887 16.5503C199.762 16.4287 199.376 17.0045 199.029 17.8299ZM99.4741 17.6592C98.7518 19.2726 98.6859 20.7503 99.1813 24.2077C100.396 32.6837 101.096 37.9904 101.253 39.9291C101.441 42.2407 101.678 42.6638 102.246 41.7029C102.973 40.4738 102.707 33.576 101.673 26.8776C101.163 23.5726 100.67 19.9159 100.577 18.7518C100.483 17.5877 100.3 16.635 100.17 16.635C100.039 16.635 99.726 17.096 99.4741 17.6592ZM280.052 17.9324C279.74 18.6461 279.404 19.4851 279.306 19.7973C279.208 20.1098 279.572 24.1659 280.114 28.8109C280.656 33.4561 281.178 38.3015 281.273 39.5784C281.369 40.8554 281.51 42.0845 281.587 42.3098C281.871 43.1404 282.572 41.1793 282.82 38.8601C283.074 36.4827 282.924 34.5593 281.672 24.1987C281.367 21.6735 281.117 18.9386 281.117 18.1214C281.117 17.3039 281.006 16.635 280.869 16.635C280.733 16.635 280.365 17.2187 280.052 17.9324ZM55.0012 17.9545C54.0827 18.8405 53.4942 20.3961 53.4942 21.9368C53.4942 24.1935 56.2084 25.1082 58.0902 23.4858C58.9679 22.7295 59.0149 22.5913 59.0149 20.7743C59.0149 18.3945 58.3784 17.3637 56.8292 17.235C56.0382 17.1695 55.6608 17.3181 55.0012 17.9545ZM43.8683 20.1972C40.3727 21.6921 39.9939 21.9245 39.4336 22.919C39.0967 23.5172 38.9135 24.0618 39.0268 24.1293C39.14 24.1968 40.9856 23.4992 43.128 22.579C46.6683 21.0587 47.0731 20.812 47.5692 19.8738C48.1694 18.7392 48.2189 18.5431 47.9027 18.5548C47.7857 18.5592 45.9704 19.2983 43.8683 20.1972ZM57.5611 19.6594C58.8238 20.6176 58.4362 21.6495 56.6868 21.9871C55.6954 22.1783 54.6266 21.7238 54.6266 21.1111C54.6266 20.6544 56.1135 19.0932 56.5484 19.0932C56.695 19.0932 57.1508 19.348 57.5611 19.6594ZM230.487 20.1696C229.994 20.7618 229.591 21.36 229.591 21.499C229.591 21.6377 230.196 22.2059 230.934 22.7614L232.278 23.7712L233.386 22.6248L234.495 21.4782L233.105 20.2964C232.34 19.646 231.64 19.1096 231.549 19.1036C231.458 19.0978 230.981 19.5777 230.487 20.1696ZM126.396 21.3138C124.994 21.9185 123.257 22.6601 122.535 22.9619C121.522 23.3853 121.108 23.7556 120.721 24.5824C120.446 25.1718 120.284 25.7154 120.361 25.7902C120.54 25.962 127.984 22.7196 128.411 22.284C128.812 21.8756 129.406 20.1808 129.142 20.2002C129.033 20.2081 127.797 20.7093 126.396 21.3138ZM190.797 23.8048C189.901 25.7086 190.097 27.1846 192.087 33.5184C193.172 36.9703 193.316 38.3362 192.621 38.5932C191.737 38.9205 189.509 38.7377 188.386 38.2455C187.002 37.6392 185.919 36.4527 185.312 34.8775C185.063 34.2332 184.509 31.3193 184.081 28.4025C183.652 25.4854 183.168 23.0561 183.005 23.0037C182.606 22.8756 181.741 25.2696 181.743 26.4982C181.744 27.0406 181.998 29.0687 182.308 31.005C183.148 36.2555 183.11 36.7173 181.744 37.9716C180.452 39.1575 178.167 39.9461 176.76 39.6915C176.262 39.6014 175.506 39.1769 175.081 38.7484C174.213 37.8743 174.005 36.6144 173.593 29.7455L173.372 26.0582L172.491 27.7765C171.809 29.1053 171.643 29.7316 171.755 30.5398C171.899 31.5785 171.892 31.5876 170.554 32.0273C167.479 33.0385 164.981 35.1408 164.044 37.507C163.404 39.1231 163.635 39.5733 165.352 40.0592C167.224 40.5888 169.405 40.2487 170.593 39.2417C171.121 38.7948 171.565 38.227 171.581 37.9795C171.596 37.7323 171.779 38.0524 171.987 38.6913C173.011 41.8296 174.826 43.4024 177.424 43.4024C179.89 43.4024 182.151 41.8851 183.374 39.4102C183.626 38.9019 183.903 38.4886 183.991 38.4922C184.079 38.4955 184.353 38.8951 184.599 39.3799C185.256 40.6715 187.141 41.9446 188.926 42.3022C191.443 42.8064 193.215 42.1435 194.351 40.2728C195.606 38.207 195.586 36.6985 194.245 32.1672C193.124 28.3744 192.473 25.8074 192.093 23.6682C191.856 22.3326 191.47 22.3733 190.797 23.8048ZM8.49976 23.9354C8.0213 24.4953 7.62976 25.0369 7.62976 25.1391C7.62976 25.241 8.25459 25.8293 9.01843 26.4463L10.4071 27.5678L11.2833 26.5007C11.7652 25.9137 12.1596 25.3071 12.1596 25.1525C12.1596 24.8496 9.93062 22.9171 9.58126 22.9171C9.4649 22.9171 8.97823 23.3754 8.49976 23.9354ZM75.0819 24.0463L74.1824 25.1751L75.6283 26.2857L77.0741 27.3963L78.02 26.3177C78.5404 25.7241 78.9679 25.1549 78.9701 25.0522C78.9758 24.7982 76.5756 22.9171 76.2454 22.9171C76.1002 22.9171 75.5765 23.4251 75.0819 24.0463ZM262.059 26.8462C260.337 27.4665 259.152 28.5874 257.982 30.7015C256.66 33.0914 257.032 35.7278 258.975 37.732C259.375 38.1434 259.644 38.5353 259.574 38.6028C259.504 38.6703 258.16 38.8109 256.587 38.9155L253.726 39.1056L253.231 37.6659C252.593 35.8127 251.039 34.1157 249.98 34.1157C248.929 34.1157 247.977 34.8928 247.085 36.4805C246.056 38.3116 245.852 39.5806 246.416 40.6333C247.041 41.7999 248.205 42.3098 250.244 42.3098C251.186 42.3098 251.957 42.4294 251.957 42.5756C251.957 42.7217 251.638 43.4898 251.248 44.2827C249.003 48.8454 245.571 50.924 239.664 51.2993C235.027 51.594 236.706 52.6333 242.225 52.8848C245.939 53.0539 247.537 52.6696 249.354 51.1687C250.787 49.9852 252.29 47.1629 252.971 44.3769L253.476 42.3098L255.194 42.3073C256.138 42.306 258.308 41.9993 260.014 41.6259C264.19 40.7122 272.388 38.4681 272.872 38.1065C273.376 37.7304 275.19 35.1348 275.047 34.996C274.986 34.9378 273.557 35.2607 271.87 35.7133C270.182 36.1659 267.815 36.7411 266.61 36.9918L264.417 37.4474L263.181 36.7479C261.099 35.5713 259.318 33.2206 259.318 31.6512C259.318 31.2232 259.724 30.9003 260.946 30.3565C263.241 29.335 267.273 29.1602 269.439 29.9886C270.656 30.4538 270.925 30.4852 270.925 30.1607C270.925 29.5038 269.282 27.9079 267.978 27.299C266.38 26.5528 263.488 26.3316 262.059 26.8462ZM78.2473 27.697C77.8317 28.2228 77.3657 28.653 77.212 28.653C77.0583 28.653 76.4482 28.2829 75.8562 27.8306L74.78 27.0084L73.9219 28.0537C73.4497 28.6287 73.0239 29.2318 72.9755 29.394C72.9271 29.556 73.5137 30.1528 74.2792 30.7203L75.6713 31.752L76.5869 30.6996C77.5999 29.5358 77.323 29.5063 79.4681 31.005C80.0689 31.4245 80.1337 31.4136 80.6549 30.802C82.0031 29.2203 82.0026 29.0343 80.6464 27.8513C79.9605 27.2532 79.3099 26.7585 79.2012 26.7522C79.0922 26.7459 78.663 27.1712 78.2473 27.697ZM232.328 27.4695C232.224 27.5694 232.139 28.2313 232.139 28.9395C232.139 30.2265 232.14 30.2284 233.665 30.9481C235.504 31.8162 237.249 33.5741 238.276 35.5939C239.217 37.4452 239.052 37.6973 236.445 38.3884C234.459 38.9153 230.252 39.0778 229.095 38.6724C228.48 38.4564 228.458 38.5039 228.458 40.0966C228.458 41.4461 228.557 41.7955 229.006 42.0271C230.292 42.6908 235.311 42.1451 237.74 41.0771C239.545 40.2837 240.127 39.2193 240.153 36.6608C240.168 35.2498 240.002 34.6429 239.143 32.9653C238.577 31.8612 237.514 30.3705 236.78 29.6524C234.993 27.9035 232.927 26.8907 232.328 27.4695ZM14.7523 29.1626C14.277 30.6939 14.2991 30.7933 15.7262 33.5645C16.511 35.0883 17.2137 36.9582 17.4954 38.2728L17.9628 40.4538L16.8307 41.385C14.4689 43.3272 10.096 44.7049 7.27615 44.3952C3.65796 43.9978 1.67701 42.0031 1.69372 38.7738C1.6991 37.7255 1.92983 36.3612 2.2506 35.4814C2.88053 33.7535 2.91054 33.5694 2.56174 33.5694C2.17388 33.5694 1.17335 35.3402 0.546255 37.1366C-1.40836 42.7343 2.07677 47.7725 7.90381 47.7725C9.7599 47.7725 12.2589 47.194 13.9072 46.3828C15.5903 45.5544 17.6763 43.5679 18.4161 42.0886C19.2558 40.4099 19.3325 36.4376 18.5729 33.9791C17.7884 31.4392 15.9165 28.1067 15.2747 28.1067C15.1679 28.1067 14.9327 28.582 14.7523 29.1626ZM146.488 30.569C145.47 30.9359 143.852 32.9478 142.526 35.4953C140.955 38.5129 140.359 38.8631 136.894 38.8044C135.661 38.7836 134.438 38.7009 134.176 38.6206C133.913 38.5403 133.356 37.8664 132.936 37.1229C132.517 36.3797 132.06 35.7032 131.92 35.6201C131.781 35.5368 131.453 36.1227 131.192 36.9216L130.717 38.3745L131.72 40.9567C132.271 42.377 132.812 44.3067 132.922 45.2452L133.122 46.9515L132.024 47.9427C129.536 50.1884 124.376 51.526 121.006 50.7986C116.929 49.9183 115.451 46.3479 117.189 41.5759C117.845 39.777 117.461 39.446 116.529 41.0059C115.412 42.8741 114.93 44.6317 114.93 46.8349C114.93 50.0101 116.067 52.01 118.641 53.3617C122.472 55.3731 129.38 53.9766 132.497 50.5604C133.897 49.026 134.465 47.2424 134.465 44.3769L134.465 42.1732H136.517C139.637 42.1732 141.413 40.9479 142.562 38.0033C142.578 37.9631 143.43 38.3092 144.456 38.7724C145.482 39.2357 147.013 39.6833 147.86 39.7677C149.698 39.9507 150.382 39.4705 150.893 37.6389C151.735 34.6213 148.711 29.7674 146.488 30.569ZM124.536 31.6818L123.619 32.7989L124.866 33.8554C125.552 34.4364 126.261 34.9171 126.443 34.9234C126.624 34.9299 127.186 34.4326 127.69 33.8183L128.607 32.7011L127.36 31.6446C126.674 31.0637 125.964 30.583 125.783 30.5767C125.601 30.5701 125.04 31.0675 124.536 31.6818ZM46.1332 34.4749C48.0629 35.4279 47.8741 35.9774 45.287 36.9358C44.1205 37.3682 41.9547 37.9432 40.474 38.2138C37.6443 38.7309 34.2424 39.0379 34.2424 38.7765C34.2427 38.5566 36.6684 36.5758 38.4263 35.3601C41.164 33.4667 43.5396 33.1939 46.1332 34.4749ZM171.836 34.8054C171.836 35.8807 171.741 36.0757 171.109 36.3076C170.229 36.6305 167.025 36.6534 166.514 36.3407C166.213 36.1569 166.214 36.0621 166.517 35.8193C167.067 35.3792 171.054 33.5694 171.474 33.5694C171.714 33.5694 171.836 33.9841 171.836 34.8054ZM147.222 34.1247C147.7 34.3714 148.903 36.2369 148.903 36.7307C148.903 36.8288 148.301 36.8219 147.565 36.7154C146.242 36.5242 144.09 35.6404 144.09 35.2886C144.09 35.1886 144.367 34.8223 144.706 34.4746C145.363 33.8 146.332 33.6653 147.222 34.1247ZM250.519 37.8274C250.998 38.2163 251.391 38.6465 251.391 38.7833C251.391 39.198 248.713 39.0663 248.118 38.6222C247.579 38.2201 247.581 38.2021 248.237 37.6662C249.112 36.9514 249.472 36.9771 250.519 37.8274ZM144.022 46.0215C140.531 47.1192 140.085 47.3311 139.684 48.0806C139.437 48.5401 139.313 48.9902 139.407 49.0811C139.502 49.1721 141.315 48.6998 143.438 48.0315C146.782 46.9785 147.366 46.7073 147.816 45.9972C148.373 45.1185 148.464 44.759 148.125 44.7831C148.008 44.791 146.162 45.3484 144.022 46.0215ZM58.8521 46.6647L57.9399 47.7597L56.5951 46.8073L55.2503 45.8546L54.3528 47.155L53.4554 48.4554L54.6779 49.4788C55.3505 50.0418 56.028 50.5028 56.1837 50.5031C56.3394 50.5036 56.8615 50.0502 57.3442 49.4958L58.2216 48.4876L59.4928 49.4928L60.7639 50.4976L61.6589 49.2953C62.1509 48.634 62.5538 48.0323 62.5538 47.9583C62.5538 47.884 61.9261 47.3164 61.1589 46.6967L59.764 45.57L58.8521 46.6647ZM168.046 47.0542C164.81 48.064 164.325 48.2967 163.741 49.1191C163.378 49.629 163.134 50.1267 163.197 50.2256C163.374 50.5017 170.783 48.0492 171.31 47.5396C171.837 47.031 172.278 45.8458 171.925 45.8884C171.798 45.9037 170.053 46.4284 168.046 47.0542ZM208.89 47.2667L207.96 48.3997L209.362 49.5905L210.764 50.7817L211.837 49.6184L212.911 48.4554L211.562 47.2946C210.82 46.6562 210.125 46.1337 210.017 46.1337C209.909 46.1337 209.402 46.6437 208.89 47.2667ZM10.6466 51.9633C7.04881 53.0867 5.93108 53.7561 5.93108 54.7878C5.93108 55.2611 5.75753 55.2958 10.2528 53.9225C13.1924 53.0247 13.8922 52.7073 14.2608 52.105C14.7393 51.3239 14.8404 50.7612 14.4953 50.8024C14.3783 50.8164 12.6465 51.3389 10.6466 51.9633ZM212.604 53.265C208.049 54.6348 207.527 54.8653 207.077 55.7047C206.847 56.1343 206.659 56.6017 206.659 56.7432C206.659 56.8846 208.445 56.428 210.629 55.7285C214.011 54.6452 214.683 54.3357 215.157 53.6412C215.747 52.7786 215.855 52.4028 215.506 52.4361C215.389 52.447 214.083 52.8201 212.604 53.265ZM160.454 86.5413C158.476 87.4033 156.674 88.2552 156.45 88.4349C155.939 88.8441 155.28 90.3425 155.512 90.567C155.684 90.7328 162.574 87.8297 163.288 87.2908C163.595 87.0589 164.475 85.3774 164.475 85.0224C164.475 84.817 163.991 84.9994 160.454 86.5413ZM169.082 87.0409C168.503 88.2263 168.483 88.4237 168.838 89.4259C169.156 90.325 171.15 102.975 171.648 107.258C171.819 108.73 171.259 109.152 168.808 109.399C166.627 109.619 164.553 109.148 163.038 108.09C162.398 107.642 161.841 107.316 161.801 107.364C161.76 107.413 161.57 108.067 161.378 108.819L161.028 110.184L162.363 111.322C163.656 112.425 163.687 112.488 163.375 113.352C162.436 115.951 159.748 118.739 156.947 120.017C155.071 120.873 152.171 121.508 150.107 121.515C149.06 121.518 148.62 121.627 148.62 121.883C148.62 122.441 150.47 122.908 153.354 123.078C155.571 123.209 156.263 123.139 157.94 122.619C159.106 122.257 160.38 121.622 161.051 121.068C162.379 119.972 164.252 116.569 164.779 114.295L165.131 112.779L167.422 112.779C170.415 112.778 171.451 112.297 172.388 110.472C173.551 108.207 173.496 106.636 171.851 95.2983C171.328 91.694 171.328 91.5869 171.846 90.543L172.376 89.4748L171.66 88.6543C171.267 88.203 170.749 87.3623 170.51 86.786C170.271 86.21 169.994 85.7407 169.894 85.7435C169.794 85.7459 169.429 86.3299 169.082 87.0409ZM177.533 88.4521C176.74 90.2292 176.762 90.8022 177.921 98.9024C178.464 102.704 179.065 107.381 179.255 109.297C179.445 111.212 179.697 112.779 179.813 112.779C181.112 112.779 181.112 105.823 179.812 97.3468C179.306 94.0419 178.814 90.3851 178.719 89.221C178.624 88.0569 178.454 87.1042 178.34 87.1042C178.227 87.1042 177.863 87.7109 177.533 88.4521ZM162.83 91.6793C162.666 92.0922 162.555 92.7377 162.583 93.1132C162.629 93.721 162.525 93.7961 161.644 93.7961C160.732 93.7961 160.646 93.7245 160.564 92.9084C160.446 91.7265 159.775 91.7637 159.541 92.9649C159.334 94.0326 158.223 95.0252 157.236 95.0252C156.476 95.0252 156.163 94.332 156.414 93.2047L156.587 92.4304L155.987 93.0914C155.085 94.0864 155.271 96.1185 156.309 96.5963C157.212 97.012 158.428 96.667 159.122 95.7982C159.496 95.3308 159.676 95.2863 160.165 95.539C161.108 96.026 162.061 95.8965 162.751 95.1877C163.558 94.359 164.001 92.5642 163.631 91.6244C163.285 90.7473 163.197 90.7533 162.83 91.6793ZM135.456 101.993C134.17 102.429 132.591 103.939 132.316 104.994C132.215 105.384 132.191 105.76 132.263 105.83C132.336 105.9 133.005 105.697 133.751 105.379C134.755 104.95 135.41 104.844 136.272 104.97C137.722 105.181 142.675 106.791 142.675 107.051C142.675 107.661 136.615 109.158 133.18 109.397C131.205 109.533 130.252 109.471 129.006 109.121C127.168 108.606 126.517 107.893 126.262 106.12L126.1 104.995L125.257 106.489C124.118 108.509 123.074 109.137 120.459 109.373C116.662 109.716 114.42 109.094 111.876 106.992C111.365 106.57 110.657 106.224 110.304 106.224C108.829 106.224 104.107 109.799 103.29 111.534C102.606 112.988 102.613 115.093 103.322 120.716C104.264 128.184 104.778 131.112 105.127 130.997C105.653 130.823 105.46 125.295 104.79 121.383C104.456 119.43 104.1 116.954 103.998 115.881L103.812 113.929L104.969 112.739C105.973 111.706 106.192 111.594 106.635 111.889C108.624 113.212 110.028 113.694 111.957 113.714C113.732 113.733 113.947 113.678 114.02 113.189C114.097 112.673 114.317 112.642 117.984 112.642C122.334 112.642 123.07 112.427 124.46 110.746L125.235 109.809L125.869 110.709C126.747 111.956 128.278 112.599 130.669 112.727C133.314 112.868 136.316 112.4 139.278 111.383C140.601 110.929 142.767 110.189 144.09 109.74C146.636 108.875 148.666 108.671 151.042 109.042L152.473 109.265L153.236 107.912C153.656 107.168 153.999 106.502 153.999 106.432C153.999 106.362 153.012 106.229 151.805 106.137C148.812 105.909 146.244 105.205 142.392 103.559C140.601 102.793 138.754 102.085 138.287 101.985C137.82 101.885 137.246 101.759 137.013 101.706C136.779 101.653 136.078 101.782 135.456 101.993ZM111.025 109.147C112.236 110.288 112.346 110.594 111.543 110.594C110.843 110.594 107.915 109.548 107.707 109.224C107.536 108.957 108.884 108.164 109.539 108.147C109.766 108.141 110.435 108.591 111.025 109.147ZM139.307 116.476C138.824 117.007 138.429 117.591 138.429 117.773C138.43 117.956 139.034 118.576 139.772 119.152L141.113 120.199L142.031 119.152C142.536 118.576 142.952 117.978 142.954 117.822C142.958 117.562 140.614 115.51 140.315 115.51C140.244 115.51 139.79 115.945 139.307 116.476ZM125.637 117.121L124.685 118.194L123.579 117.399C122.971 116.961 122.333 116.603 122.162 116.603C121.991 116.603 121.497 117.125 121.064 117.764L120.277 118.925L121.496 119.948C122.167 120.511 122.873 120.972 123.067 120.972C123.26 120.973 123.706 120.545 124.058 120.02C124.409 119.497 124.803 119.066 124.933 119.064C125.062 119.063 125.709 119.488 126.369 120.011L127.57 120.96L128.469 119.73C128.964 119.053 129.369 118.453 129.369 118.396C129.369 118.339 128.743 117.788 127.979 117.17L126.59 116.048L125.637 117.121ZM112.568 119.159C108.972 120.281 107.852 120.951 107.852 121.979C107.852 122.453 107.678 122.487 112.174 121.114C115.113 120.216 115.813 119.899 116.182 119.297C116.66 118.516 116.762 117.951 116.416 117.997C116.299 118.012 114.568 118.535 112.568 119.159ZM142.25 122.774C140.537 123.304 138.78 123.87 138.344 124.032C137.58 124.317 136.52 125.779 136.848 126.095C136.936 126.181 138.736 125.713 140.847 125.057C144.244 124 144.747 123.764 145.237 123C146.19 121.512 146.305 121.521 142.25 122.774Z" fill="white"/>
</svg>
